<svg xmlns="http://www.w3.org/2000/svg" viewBox="0 0 64 64">
  <path fill="#000842" d="M0 0h64v64H0z"/>
  <path fill="#f6ae2d" d="M52.38 25.16a15.07 15.07 0 01-9.07 19.26L31.6 48.64l4.09 1.77a2.26 2.26 0 011.15 3l-.61 1.3a2.26 2.26 0 01-3 1.08l-11.17-5.22a2.27 2.27 0 01-1.08-3l5.26-11.17a2.25 2.25 0 013-1.08l1.3.61A2.26 2.26 0 0131.59 39l-2 4 11.7-4.21A9 9 0 0044.73 24a2.23 2.23 0 01-.43-2.51L45 20a2.26 2.26 0 013.58-.69 14.94 14.94 0 013.8 5.85z"/>
  <path fill="#fff" d="M19.11 41.05a8.93 8.93 0 01-2-3.2 9 9 0 015.44-11.56l11.71-4.21-2 4a2.27 2.27 0 001 3.07l1.3.61a2.27 2.27 0 003-1.08l5.25-11.16a2.26 2.26 0 00-1.08-3L30.61 9.23a2.25 2.25 0 00-3 1.08l-.61 1.3a2.25 2.25 0 001.14 3l4.09 1.77-11.71 4.24a15.06 15.06 0 00-5.26 25.1 2.26 2.26 0 003.59-.72l.69-1.47a2.27 2.27 0 00-.43-2.51z"/>
</svg>
