<svg xmlns="http://www.w3.org/2000/svg" viewBox="0 0 64 64"><defs><style>.cls-1{fill:#000842;}.cls-2{fill:#f6ae2d;}.cls-3{fill:#fff;}</style></defs><title>Zeichenfläche 1</title><g id="Ebene_1" data-name="Ebene 1"><rect class="cls-1" width="64" height="64"/></g><g id="replacer"><path class="cls-2" d="M52.38,25.16a15.07,15.07,0,0,1-9.07,19.26L31.6,48.64l4.09,1.77a2.26,2.26,0,0,1,1.15,3l-.61,1.3a2.26,2.26,0,0,1-3,1.08L22.06,50.57a2.27,2.27,0,0,1-1.08-3L26.24,36.4a2.25,2.25,0,0,1,3-1.08l1.3.61A2.26,2.26,0,0,1,31.59,39l-2,4,11.7-4.21A9,9,0,0,0,44.73,24a2.23,2.23,0,0,1-.43-2.51L45,20a2.26,2.26,0,0,1,3.58-.69A14.94,14.94,0,0,1,52.38,25.16Z"/><path class="cls-3" d="M19.11,41.05a8.93,8.93,0,0,1-2-3.2,9,9,0,0,1,5.44-11.56l11.71-4.21-2,4a2.27,2.27,0,0,0,1,3.07l1.3.61a2.27,2.27,0,0,0,3-1.08l5.25-11.16a2.26,2.26,0,0,0-1.08-3L30.61,9.23a2.25,2.25,0,0,0-3,1.08L27,11.61a2.25,2.25,0,0,0,1.14,3l4.09,1.77L20.52,20.62a15.06,15.06,0,0,0-5.26,25.1A2.26,2.26,0,0,0,18.85,45l.69-1.47a2.27,2.27,0,0,0-.43-2.51Z"/></g></svg>